<svg aria-hidden="true" style="position: absolute; width: 0; height: 0; overflow: hidden;" version="1.1" xmlns="http://www.w3.org/2000/svg" xmlns:xlink="http://www.w3.org/1999/xlink">
<defs>
<symbol id="icon-html5" viewBox="0 0 32 32">
<title>html5</title>
<path fill="#e34f26" style="fill: var(--color1, #e34f26)" d="M2 0h28l-2.547 28.751-11.484 3.249-11.419-3.251zM11.375 13l-0.309-3.624 13.412 0.004 0.307-3.496-17.568-0.004 0.931 10.68h12.168l-0.435 4.568-3.88 1.072-3.94-1.080-0.251-2.813h-3.479l0.44 5.561 7.229 1.933 7.172-1.924 0.992-10.876z"></path>
</symbol>
<symbol id="icon-java" viewBox="0 0 32 32">
<title>java</title>
<path fill="#007396" style="fill: var(--color2, #007396)" d="M11.801 24.747c0 0-1.223 0.712 0.871 0.952 2.536 0.291 3.832 0.249 6.625-0.281 0 0 0.736 0.461 1.761 0.861-6.265 2.684-14.177-0.157-9.257-1.532zM11.035 21.244c0 0-1.371 1.015 0.723 1.232 2.709 0.279 4.848 0.303 8.551-0.411 0 0 0.512 0.519 1.316 0.803-7.572 2.215-16.009 0.173-10.589-1.624zM17.488 15.3c1.544 1.777-0.405 3.377-0.405 3.377s3.919-2.024 2.119-4.557c-1.681-2.363-2.971-3.536 4.009-7.584 0-0.001-10.955 2.735-5.723 8.764zM25.773 27.339c0 0 0.905 0.745-0.996 1.321-3.616 1.096-15.051 1.425-18.225 0.044-1.141-0.497 1-1.187 1.672-1.331 0.703-0.152 1.104-0.124 1.104-0.124-1.271-0.895-8.208 1.756-3.524 2.516 12.773 2.071 23.283-0.933 19.969-2.427zM12.389 17.613c0 0-5.816 1.381-2.059 1.883 1.585 0.212 4.748 0.164 7.693-0.083 2.408-0.203 4.824-0.636 4.824-0.636s-0.849 0.363-1.464 0.783c-5.905 1.553-17.315 0.831-14.029-0.757 2.776-1.341 5.035-1.189 5.035-1.189zM22.821 23.445c6.004-3.12 3.228-6.119 1.291-5.713-0.473 0.099-0.687 0.184-0.687 0.184s0.176-0.276 0.513-0.396c3.833-1.348 6.781 3.975-1.237 6.083 0-0.001 0.093-0.083 0.12-0.157zM19.201 0c0 0 3.325 3.325-3.153 8.44-5.195 4.103-1.184 6.443-0.001 9.115-3.032-2.737-5.257-5.144-3.765-7.385 2.192-3.292 8.263-4.887 6.92-10.169zM12.979 31.899c5.763 0.369 14.612-0.204 14.821-2.931 0 0-0.403 1.033-4.763 1.855-4.917 0.925-10.985 0.817-14.583 0.224 0-0.001 0.737 0.609 4.524 0.852z"></path>
</symbol>
<symbol id="icon-sap" viewBox="0 0 32 32">
<title>sap</title>
<path fill="#008fd3" style="fill: var(--color3, #008fd3)" d="M0 8.085v15.829h16.173l15.827-15.829zM4.352 11.029h0.007c1.151 0.001 2.553 0.327 3.568 0.844l-1.093 1.907c-1.113-0.539-1.673-0.589-2.307-0.623-0.944-0.051-1.419 0.287-1.425 0.651-0.009 0.443 0.892 0.844 1.74 1.117 1.285 0.408 2.92 0.953 3.169 2.533l2.349-6.209h2.728l2.752 7.435-0.009-7.433h3.16c3.009 0 4.424 1.019 4.424 3.359 0 2.1-1.453 3.352-3.915 3.352h-1.017l-0.013 2.792-4.784-0.004-0.333-1.211c-0.493 0.163-1.049 0.252-1.64 0.252-0.608 0-1.18-0.095-1.684-0.267l-0.477 1.225-2.667 0.008 0.12-0.616c-0.039 0.033-0.076 0.067-0.116 0.099-0.713 0.573-1.611 0.839-2.716 0.859l-0.284 0.003c-0.020 0-0.045 0-0.069 0-1.241 0-2.405-0.334-3.405-0.918l0.032 0.017 0.973-1.931c1.053 0.623 1.715 0.763 2.608 0.744 0.463-0.009 0.797-0.093 1.015-0.319 0.124-0.128 0.202-0.3 0.208-0.491l0-0.001c0.009-0.501-0.707-0.737-1.58-1.008-0.708-0.219-1.513-0.519-2.141-0.98-0.745-0.547-1.1-1.232-1.083-2.2 0.005-0.715 0.292-1.362 0.755-1.837l-0 0.001c0.692-0.716 1.809-1.151 3.151-1.151zM18.481 13.256v2.539h0.695c0.925 0 1.663-0.307 1.664-1.285 0-0.945-0.739-1.253-1.664-1.253zM11.699 14.279l-0.997 3.149c0.297 0.113 0.641 0.177 1.009 0.177 0.357 0 0.693-0.063 0.989-0.168z"></path>
</symbol>
<symbol id="icon-bootstrap" viewBox="0 0 32 32">
<title>bootstrap</title>
<path fill="#563d7c" style="fill: var(--color4, #563d7c)" d="M26.667 0h-21.333c-2.943 0.008-5.325 2.391-5.333 5.333v21.333c0 2.933 2.4 5.333 5.333 5.333h21.333c2.933 0 5.333-2.4 5.333-5.333v-21.333c0-2.933-2.4-5.333-5.333-5.333zM23.751 22.473c-0.267 0.643-0.689 1.209-1.231 1.645-0.56 0.453-1.269 0.827-2.143 1.093-0.872 0.271-1.909 0.407-3.111 0.407h-8.576v-18.667h9.069c1.677 0 3.021 0.377 4.027 1.147 1.013 0.773 1.517 1.925 1.517 3.48 0 0.94-0.229 1.747-0.691 2.413-0.459 0.663-1.12 1.181-1.973 1.541v0.061c1.139 0.24 2.020 0.78 2.6 1.62s0.877 1.901 0.877 3.183c0 0.717-0.139 1.4-0.4 2.037zM20.049 17.873c-0.547-0.5-1.315-0.744-2.307-0.744h-5.763v5.824h5.779c0.987 0 1.76-0.256 2.307-0.773 0.547-0.513 0.827-1.245 0.827-2.187-0.009-0.92-0.28-1.632-0.827-2.12zM19.249 14.109c0.528-0.448 0.787-1.089 0.787-1.925 0-0.939-0.233-1.605-0.707-1.987-0.469-0.38-1.147-0.577-2.037-0.577h-5.333v5.151h5.333c0.777 0 1.44-0.227 1.957-0.661z"></path>
</symbol>
<symbol id="icon-greensock" viewBox="0 0 32 32">
<title>greensock</title>
<path fill="#88ce02" style="fill: var(--color5, #88ce02)" d="M17.964 31.931c-0.415-0.071-0.852-0.267-1.093-0.487-0.163-0.168-0.263-0.397-0.264-0.649v-0c0-0.24 0.12-0.587 0.323-0.928 0.108-0.178 0.203-0.383 0.273-0.599l0.006-0.021c0.040-0.151 0.128-0.4 0.196-0.556l0.121-0.283 0.032-1.915c0.017-1.053 0.049-2.035 0.071-2.184 0.078-0.485 0.195-0.916 0.352-1.328l-0.015 0.045 0.112-0.279-0.164-0.097c-0.153-0.092-0.28-0.224-0.773-0.811-0.609-0.72-1.409-1.115-2.544-1.253-0.298-0.031-0.685-0.058-1.076-0.075l-0.044-0.002c-1.669-0.077-2.621-0.425-3.48-1.269-0.64-0.632-0.975-1.367-1.111-2.448-0.184-1.464-0.387-2.217-0.76-2.827-0.097-0.158-0.202-0.296-0.318-0.422l0.002 0.002-0.152-0.151-0.333 0.213c-0.185 0.117-0.439 0.271-0.564 0.34-0.462 0.256-0.853 0.508-1.225 0.783l0.030-0.021c-0.928 0.676-1.945 1.523-2.503 2.083-0.251 0.251-0.383 0.356-0.436 0.349-0.384-0.057-0.088-1.707 0.528-2.947 0.793-1.596 2.124-3.071 3.669-4.068 1.267-0.817 3.313-1.941 4.261-2.337 1.68-0.703 3.856-1.464 5.347-1.871 0.315-0.085 0.508-0.163 0.636-0.253 0.293-0.204 0.579-0.3 0.908-0.307 0.275-0.004 0.301-0.013 0.567-0.187 0.313-0.203 0.403-0.216 0.717-0.107l0.205 0.073 0.249-0.169 0.251-0.169 0.36 0.008c0.273 0.005 0.399-0.009 0.516-0.061 0.152-0.067 0.157-0.075 0.2-0.327 0.096-0.541 0.107-0.813 0.049-1.139-0.077-0.432-0.084-2.112-0.011-2.439 0.079-0.355 0.129-0.425 0.393-0.556 0.396-0.196 0.692-0.251 1.376-0.251 0.832 0 1.253 0.112 1.565 0.413 0.283 0.275 0.331 0.907 0.183 2.4-0.085 0.856-0.096 1.097-0.073 1.659 0.013 0.361 0.036 0.699 0.049 0.748 0.023 0.087 0.043 0.092 0.345 0.099 0.295 0.005 0.347 0.019 0.628 0.167 0.272 0.141 0.475 0.312 0.515 0.433 0.008 0.027 0.053 0.028 0.139 0.004 0.157-0.047 0.3 0.004 0.412 0.145 0.068 0.087 0.111 0.104 0.271 0.104 0.213 0 0.288 0.051 0.465 0.312 0.083 0.116 0.194 0.207 0.323 0.265l0.005 0.002c0.293 0.147 0.687 0.552 0.84 0.872 0.233 0.483 0.283 1.036 0.135 1.539-0.053 0.187-0.053 0.193 0.056 0.376 0.232 0.387 0.316 0.867 0.223 1.272l-0.055 0.24 0.157 0.156c0.777 0.777 0.663 2.041-0.287 3.173-0.101 0.12-0.22 0.309-0.264 0.424-0.187 0.484-0.392 0.824-0.665 1.104l-0.272 0.28h-0.285c-0.28 0-0.673-0.093-0.913-0.22-0.1-0.052-0.107-0.051-0.087 0.013 0.067 0.229 0.219 1.16 0.273 1.673 0.084 0.792 0.059 1.944-0.053 2.439-0.087 0.395-0.224 0.745-0.406 1.066l0.010-0.019c-0.101 0.168-0.111 0.207-0.088 0.405 0.032 0.289-0.036 0.768-0.153 1.084-0.139 0.369-0.191 0.543-0.221 0.728-0.027 0.163-0.027 0.164 0.088 0.164 0.153 0 0.233 0.091 0.233 0.265 0 0.080-0.067 0.499-0.149 0.933-0.228 1.211-0.243 1.351-0.245 2.527-0.004 1.212-0.005 1.203 0.272 1.383l0.619 0.403c0.49 0.331 1.050 0.625 1.643 0.855l0.058 0.020c0.871 0.344 0.991 0.432 0.991 0.725 0 0.127-0.025 0.177-0.133 0.281-0.336 0.324-0.992 0.396-2.316 0.256-0.618-0.062-1.337-0.099-2.064-0.1h-0.002c-1.82-0.027-2.089-0.089-2.327-0.544-0.136-0.26-0.112-0.6 0.079-1.157 0.070-0.189 0.144-0.439 0.206-0.693l0.011-0.053c0.124-0.607 0.040-1.324-0.251-2.139l-0.247-0.691c-0.248-0.704-0.381-1.992-0.235-2.283 0.027-0.053 0.072-0.067 0.195-0.059l0.159 0.013 0.128-0.272c0.1-0.211 0.211-0.352 0.507-0.651l0.38-0.381-0.019-0.243c-0.019-0.232-0.324-1.369-0.368-1.367-0.012 0-0.097 0.117-0.192 0.26-0.227 0.344-0.736 0.877-1.021 1.069-0.125 0.085-0.229 0.183-0.229 0.216-0.003 0.137-0.125 0.413-0.268 0.607-0.141 0.191-0.151 0.217-0.129 0.387 0.032 0.244-0.044 1.031-0.139 1.44-0.094 0.34-0.211 0.634-0.355 0.913l0.012-0.026c-0.36 0.747-0.629 1.411-0.7 1.72-0.045 0.26-0.077 0.569-0.090 0.883l-0 0.015c-0.017 0.352-0.053 0.699-0.080 0.769-0.035 0.1-0.036 0.176-0.003 0.328 0.024 0.109 0.040 0.355 0.036 0.547-0.005 0.267 0.016 0.44 0.093 0.752 0.133 0.529 0.163 0.863 0.097 1.061-0.040 0.123-0.085 0.172-0.221 0.24-0.316 0.16-1.199 0.247-1.679 0.164zM19.231 31.507c0.183-0.052 0.336-0.212 0.336-0.351 0-0.060-0.053-0.244-0.116-0.408-0.12-0.307-0.339-1.116-0.339-1.251 0-0.072 0.005-0.073 0.113-0.016l0.113 0.060-0.003-0.147c-0.015-0.146-0.045-0.279-0.089-0.406l0.004 0.012c-0.099-0.297-0.112-0.304-0.739-0.339l-0.429-0.023-0.153 0.151c-0.086 0.085-0.161 0.182-0.222 0.287l-0.004 0.007c-0.069 0.137-0.096 0.34-0.051 0.387 0.011 0.012 0.113 0 0.227-0.027 0.060-0.019 0.131-0.032 0.203-0.038l0.004-0c0 0.007-0.115 0.097-0.256 0.201-0.627 0.464-0.844 0.752-0.844 1.116 0 0.381 0.355 0.677 0.917 0.765 0.387 0.061 1.139 0.072 1.327 0.019zM27.703 30.887c0.156-0.189 0.137-0.38-0.061-0.6-0.112-0.114-0.24-0.212-0.381-0.289l-0.008-0.004c-0.174-0.092-0.317-0.178-0.455-0.271l0.017 0.011c-0.115-0.080-0.483-0.293-0.816-0.48-0.295-0.158-0.525-0.293-0.749-0.436l0.047 0.028-0.093-0.073v-1.433c0-1.413-0.003-1.431-0.077-1.411-0.364 0.1-0.968 0.145-1.736 0.131l-0.825-0.013 0.117 0.291c0.223 0.555 0.339 1.293 0.337 2.141 0 0.317-0.019 0.435-0.097 0.656-0.014 0.029-0.054 0.139-0.092 0.25l-0.024 0.082c-0.015 0.047 0.043 0.080 0.259 0.144 0.153 0.047 0.385 0.095 0.516 0.109l0.237 0.024-0.024 0.241c-0.027 0.273 0.004 0.557 0.072 0.648 0.039 0.051 0.199 0.069 0.92 0.104 0.549 0.027 1.144 0.083 1.612 0.152 0.407 0.060 0.844 0.112 0.973 0.113 0.216 0.004 0.24-0.004 0.332-0.115zM19.367 28.445c0.020-0.013 0.049-0.296 0.063-0.628 0.041-0.933 0.076-1.067 0.547-2.119 0.383-0.859 0.588-1.66 0.569-2.231l-0.011-0.339-0.143 0.141c-0.303 0.3-0.095-0.173 0.263-0.596 0.271-0.32 0.364-0.5 0.409-0.783 0.019-0.115 0.063-0.173 0.24-0.307 0.669-0.513 1.156-1.16 1.471-1.951 0.075-0.188 0.264-0.827 0.42-1.421 0.291-1.101 0.447-1.572 0.587-1.777 0.053-0.079 0.073-0.091 0.060-0.039-0.080 0.313-0.107 0.44-0.173 0.849-0.043 0.255-0.12 0.752-0.171 1.104-0.104 0.709-0.208 1.168-0.348 1.525l-0.093 0.237 0.252 0.647c0.257 0.663 0.377 1.14 0.403 1.607l0.013 0.256-0.205 0.043c-0.274 0.051-0.507 0.203-0.661 0.416l-0.002 0.003c-0.181 0.253-0.277 0.464-0.231 0.512 0.020 0.020 0.276 0.067 0.567 0.1 0.456 0.053 0.627 0.056 1.225 0.017 0.287-0.013 0.553-0.040 0.814-0.080l-0.042 0.005c0.056-0.020 0.111-0.135 0.205-0.431 0.216-0.68 0.257-0.924 0.232-1.4l-0.021-0.423 0.109-0.14c0.256-0.325 0.453-0.909 0.533-1.587 0.1-0.835-0.080-2.581-0.42-4.083-0.16-0.711-0.227-1.139-0.227-1.453v-0.276l-0.257 0.027c-0.916 0.101-2.024 0.073-2.704-0.067-0.368-0.075-1.301-0.347-1.507-0.439l-0.159-0.071-0.023 0.18c-0.014 0.118-0.033 0.22-0.057 0.32l0.004-0.019c-0.031 0.113-0.019 0.136 0.175 0.328 0.24 0.24 0.315 0.368 0.315 0.536 0 0.1-0.060 0.184-0.351 0.489-0.213 0.224-0.485 0.46-0.693 0.599l-0.341 0.229-0.141 0.501c-0.525 1.853-0.624 3.532-0.28 4.739l0.085 0.301-0.167 0.207c-0.627 0.789-0.995 1.388-1.051 1.72-0.011 0.067-0.064 0.287-0.117 0.489-0.133 0.515-0.237 1.271-0.283 2.088-0.043 0.856-0.092 1.566-0.154 2.273l0.016-0.221-0.023 0.203 0.26 0.080c0.144 0.044 0.364 0.097 0.489 0.116 0.232 0.037 0.665 0.031 0.729-0.011zM24.424 25.581c0.404-0.024 0.775-0.088 0.847-0.147 0.031-0.024 0.067-0.133 0.080-0.24l0.023-0.197-0.32 0.071c-0.214 0.044-0.478 0.081-0.745 0.102l-0.024 0.002c-0.166 0.008-0.361 0.012-0.557 0.012-0.453 0-0.9-0.024-1.341-0.070l0.055 0.005c-0.203-0.031-0.204-0.029-0.137 0.236 0.049 0.2 0.060 0.205 0.593 0.247 0.355 0.027 0.845 0.021 1.527-0.020zM24.084 24.675c0.528-0.044 1.192-0.157 1.32-0.227 0.041-0.023 0.081-0.099 0.096-0.185l0.048-0.277 0.024-0.132-0.128 0.027c-0.577 0.121-1.016 0.157-1.893 0.157-0.852 0-0.949-0.008-1.173-0.084-0.081-0.036-0.174-0.059-0.273-0.064l-0.002-0c-0.037 0.023-0.040 0.32-0.007 0.527 0.020 0.127 0.040 0.148 0.167 0.184 0.396 0.107 1.061 0.135 1.821 0.075zM14.419 19.977c1.333-0.381 3.077-1.516 4.503-2.929 0.467-0.464 0.52-0.529 0.583-0.733l0.085-0.265c0.009-0.021-0.075-0.060-0.184-0.087-0.288-0.069-0.503-0.232-0.505-0.384 0-0.088-0.053-0.176-0.2-0.34-0.249-0.277-0.311-0.397-0.337-0.663l-0.021-0.211-0.288-0.211c-0.165-0.12-0.752-0.443-1.371-0.753-0.578-0.282-1.032-0.531-1.474-0.797l0.089 0.049c-0.52-0.352-0.871-0.768-1.067-1.263-0.039-0.101-0.084-0.184-0.1-0.184-0.044 0-1.213 1.133-1.715 1.663-1.232 1.303-2.084 2.433-2.619 3.48-0.133 0.26-0.28 0.567-0.323 0.681l-0.080 0.209 0.097 0.347c0.053 0.191 0.173 0.497 0.267 0.68 0.328 0.645 0.721 1.036 1.365 1.353 0.693 0.343 1.307 0.461 2.333 0.449 0.555-0.007 0.713-0.021 0.961-0.092zM3.895 15.413c0.876-0.776 2.084-1.627 3.565-2.509 0.969-0.577 4.711-2.449 6.435-3.219 0.312-0.14 0.595-0.268 0.627-0.287 0.031-0.017 0.121-0.24 0.201-0.492 0.368-1.159 0.549-1.388 1.211-1.537 0.084-0.019 0.104-0.045 0.104-0.132 0-0.147 0.104-0.499 0.193-0.655 0.067-0.12 0.068-0.127 0.007-0.109-0.036 0.012-0.253 0.075-0.484 0.141-3.173 0.916-5.949 2.133-8.347 3.656-2.56 1.627-4.029 3.573-4.457 5.905l-0.032 0.173 0.309-0.308c0.169-0.169 0.471-0.452 0.668-0.628zM27.464 15.853c0.253-0.131 0.649-0.731 0.796-1.203 0.047-0.175 0.131-0.327 0.244-0.452l-0.001 0.001c0.389-0.427 0.708-1.207 0.709-1.739 0-0.827-0.465-1.145-1.151-0.789-0.085 0.044-0.161 0.073-0.169 0.064-0.039-0.039 0.156-0.227 0.387-0.373 0.311-0.2 0.369-0.32 0.369-0.755 0-0.361-0.092-0.657-0.3-0.977-0.093-0.14-0.131-0.236-0.116-0.291l0.096-0.352c0.128-0.463 0.081-0.992-0.117-1.329-0.303-0.513-0.675-0.764-1.192-0.803l-0.3-0.023 0.179 0.196c0.523 0.572 0.777 1.284 0.677 1.893-0.052 0.309-0.103 0.373-0.404 0.496l-0.173 0.071 0.020 0.239c0.035 0.393-0.032 0.677-0.283 1.207-0.124 0.264-0.219 0.501-0.209 0.527 0.033 0.089 0.373 0.26 0.644 0.325l0.267 0.064-0.167 0.053c-0.215 0.071-0.264 0.168-0.265 0.529 0 0.327 0.047 0.461 0.289 0.821 0.107 0.157 0.18 0.316 0.192 0.411 0.020 0.148 0.013 0.157-0.107 0.201-0.121 0.034-0.263 0.058-0.408 0.066l-0.005 0c-0.489 0.031-0.527 0.044-0.744 0.253-0.2 0.191-0.204 0.201-0.204 0.409 0 0.287 0.107 0.86 0.176 0.939 0.085 0.097 0.581 0.34 0.773 0.377 0.051 0.013 0.109 0.020 0.169 0.020 0.12 0 0.233-0.029 0.332-0.081l-0.004 0.002zM20.251 15.461c0.319-0.249 0.567-0.499 0.709-0.713 0.087-0.131 0.092-0.156 0.048-0.263-0.069-0.169-0.548-0.6-0.815-0.729-0.162-0.076-0.35-0.132-0.547-0.159l-0.010-0.001-0.328-0.045-0.205-0.256c-0.419-0.52-0.653-0.924-0.989-1.709-0.288-0.669-0.545-1.060-0.951-1.443-0.167-0.157-0.289-0.287-0.275-0.287 0.016 0 0.215 0.097 0.444 0.217 0.384 0.201 0.428 0.216 0.601 0.195 0.62-0.075 1.164-0.788 1.365-1.787 0.057-0.285 0.169-0.572 0.291-0.743 0.005-0.007 0.243 0.153 0.527 0.356 0.712 0.507 0.869 0.581 1.273 0.597 0.269 0.011 0.419-0.011 0.896-0.125 1.020-0.248 2.125-0.349 2.8-0.257 0.38 0.052 0.923 0.217 1.333 0.408 0.401 0.187 0.479 0.197 0.609 0.083 0.107-0.093 0.108-0.107 0.107-0.456-0.003-0.515-0.192-1.072-0.48-1.404-0.147-0.172-0.553-0.453-0.96-0.668-0.232-0.12-0.374-0.198-0.516-0.279l0.080 0.042c-0.189-0.111-0.412-0.097-1.003 0.059-0.687 0.18-0.869 0.177-1.657-0.024-0.665-0.171-0.709-0.173-1.363-0.071-0.348 0.055-1.224 0.023-1.517-0.055-0.186-0.051-0.331-0.099-0.472-0.151l0.039 0.013c-0.253-0.095-0.696-0.111-1.096-0.040-0.8 0.143-1.405 0.573-1.624 1.16-0.112 0.299-0.097 0.439 0.056 0.535 0.236 0.149 0.555 0.561 0.555 0.72 0 0.013-0.075-0.055-0.167-0.151-0.221-0.232-0.427-0.335-0.667-0.335-0.325 0.007-0.602 0.201-0.731 0.478l-0.002 0.005c-0.059 0.147-0.119 0.333-0.169 0.524l-0.008 0.036c-0.147 0.536-0.275 0.816-0.549 1.189-0.248 0.337-0.281 0.488-0.195 0.868 0.219 0.959 0.597 1.348 2.185 2.248 0.833 0.472 1.264 0.737 1.576 0.972 0.239 0.177 0.245 0.187 0.224 0.324-0.049 0.311 0.149 0.653 0.541 0.927 0.1 0.069 0.163 0.143 0.163 0.191 0 0.096 0.261 0.227 0.457 0.227 0.107 0 0.193-0.045 0.416-0.221zM26.671 13.709c0.605 0.017 0.639-0.025 0.313-0.401-0.339-0.393-0.431-0.709-0.307-1.059l0.049-0.136-0.212-0.104c-0.060-0.033-0.132-0.066-0.206-0.093l-0.011-0.003c-0.021 0.063-0.057 0.201-0.091 0.341l-0.015 0.072c-0.077 0.32-0.173 1.141-0.175 1.493 0 0.031 0.051 0.017 0.14-0.037 0.123-0.073 0.187-0.083 0.513-0.073zM24.647 13.676c0.364-0.020 0.741-0.048 0.84-0.061l0.179-0.024 0.023-0.603c0.031-0.853 0.153-1.357 0.524-2.163 0.264-0.573 0.375-1.076 0.32-1.448-0.024-0.163-0.033-0.173-0.251-0.268-0.359-0.147-0.778-0.265-1.213-0.333l-0.032-0.004c-0.413-0.060-1.619-0.025-2.073 0.060-0.187 0.035-0.529 0.107-0.76 0.161-0.568 0.133-0.869 0.116-1.301-0.073-0.427-0.188-0.699-0.357-0.956-0.597-0.201-0.188-0.22-0.197-0.275-0.135-0.040 0.047-0.063 0.187-0.076 0.491-0.019 0.463-0.088 0.707-0.293 1.036-0.043 0.061-0.081 0.132-0.112 0.206l-0.003 0.007c0 0.016 0.159 0.195 0.352 0.395 0.665 0.693 0.992 0.872 1.517 0.832 0.173-0.013 0.293-0.008 0.293 0.013 0 0.039-0.339 0.307-0.481 0.381-0.064 0.033-0.080 0.071-0.069 0.151l0.080 0.544c0.048 0.315 0.085 0.457 0.133 0.5 0.124 0.107 0.769 0.44 1.173 0.603 0.535 0.217 0.823 0.295 1.232 0.329 0.497 0.041 0.508 0.041 1.229 0zM20.34 13.107c0.011-0.020-0.029-0.32-0.093-0.669-0.084-0.475-0.131-0.647-0.183-0.691-0.040-0.032-0.231-0.171-0.425-0.308-0.265-0.196-0.498-0.394-0.719-0.605l0.003 0.002-0.361-0.352-0.189 0.1-0.205 0.111c0.020 0.089 0.049 0.167 0.088 0.24l-0.002-0.005c0.053 0.124 0.168 0.431 0.253 0.68 0.22 0.652 0.388 0.964 0.821 1.531l0.165 0.215 0.307 0.048c0.168 0.027 0.343 0.061 0.388 0.079 0.075 0.028 0.084 0.016 0.107-0.153 0.008-0.082 0.024-0.157 0.049-0.228l-0.002 0.007zM26.937 6.627c0.267-0.025 0.312-0.067 0.196-0.184-0.069-0.071-0.239-0.079-0.373-0.016-0.091 0.041-0.109 0.032-0.249-0.12-0.147-0.163-0.155-0.167-0.339-0.144-0.167 0.020-0.192 0.013-0.213-0.055-0.069-0.115-0.149-0.214-0.239-0.301l-0-0c-0.116-0.133-0.261-0.237-0.426-0.304l-0.008-0.003c-0.324-0.123-0.504-0.109-0.812 0.060-0.889 0.487-0.853 0.481-1.711 0.263-0.804-0.205-1.405-0.409-1.596-0.543-0.16-0.111-0.505-0.227-0.791-0.267-0.213-0.029-0.352 0.017-0.555 0.187l-0.107 0.088 0.096 0.171c0.136 0.241 0.123 0.255-0.083 0.080-0.217-0.187-0.476-0.312-0.647-0.313-0.119 0-0.473 0.153-0.516 0.224-0.012 0.019 0.097 0.044 0.241 0.057 0.153 0.013 0.361 0.064 0.501 0.124 0.363 0.155 0.552 0.205 0.885 0.24 0.364 0.035 1.028-0.007 1.104-0.071 0.039-0.033 0.153-0.039 0.395-0.020 0.317 0.024 0.449 0.053 1.204 0.257 0.437 0.12 0.744 0.111 1.265-0.035 0.24-0.067 0.541-0.133 0.668-0.147 0.213-0.023 0.256-0.013 0.587 0.137 0.533 0.24 0.813 0.395 0.971 0.533 0.156 0.133 0.173 0.137 0.551 0.1zM23.967 5.715l0.317-0.165-0.007-0.327c-0.006-0.251-0.017-0.48-0.032-0.709l0.003 0.049-0.023-0.335-0.317 0.245c-0.188 0.147-0.371 0.256-0.452 0.271-0.228 0.044-1.355 0-1.461-0.056-0.143-0.108-0.27-0.221-0.387-0.344l-0.001-0.001-0.293-0.293-0.004 0.173c0 0.093-0.015 0.256-0.032 0.357-0.029 0.184-0.027 0.189 0.173 0.444 0.112 0.143 0.203 0.269 0.203 0.283 0 0.101 1.504 0.568 1.843 0.573 0.108 0 0.245-0.048 0.471-0.165zM23.364 4.529c0.376-0.072 0.56-0.344 0.697-1.031 0.147-0.739 0.221-1.9 0.151-2.396-0.063-0.445-0.559-0.647-1.515-0.615-0.592 0.020-0.837 0.079-1.039 0.249-0.125 0.107-0.128 0.116-0.183 0.609-0.107 0.948 0.048 2.299 0.32 2.807 0.129 0.244 0.245 0.333 0.487 0.373 0.271 0.047 0.847 0.048 1.081 0.003z"></path>
</symbol>
<symbol id="icon-babel" viewBox="0 0 32 32">
<title>babel</title>
<path fill="#f9dc3e" style="fill: var(--color6, #f9dc3e)" d="M21.912 10.763l-0.007-0.068-0.112 0.009 0.007 0.069zM22.661 12.565l0.003 0.037 0.077-0.007c0.001-0.040 0.010-0.077 0.025-0.111l-0.001 0.002-0.007-0.068c-0.033 0.003-0.067 0.052-0.097 0.147zM19.737 14.835c-0.005-0.064-0.204-0.313-0.597-0.752-0.007-0.080 0.128-0.2 0.405-0.36l0.792-0.691c0.177-0.225 0.281-0.589 0.313-1.097l-0.009-0.116c-0.032-0.351-0.285-0.633-0.767-0.849-0.284-0.192-0.796-0.299-1.536-0.317-0.613 0.052-1.411 0.271-2.396 0.656-0.261 0.189-0.563 0.382-0.875 0.559l-0.049 0.025 0.005 0.059c0.036-0.006 0.067-0.020 0.094-0.040l-0.001 0c0.040-0.004 0.063 0.013 0.067 0.053l0.059-0.032 0.027-0.003 0.004 0.027c0.003 0.031-0.211 0.2-0.643 0.5l0.033 0.061-0.028 0.003-0.072-0.027c0.003 0.023-0.028 0.036-0.088 0.040l0.003 0.027 0.069 0.085c-0.036-0.001-0.071-0.009-0.102-0.023l0.002 0.001c-0.118 0.018-0.22 0.076-0.293 0.159l-0 0.001 0.040-0.175c0.145-0.624 0.244-1.176 0.296-1.655l-0.007-0.031c-0.111-0.075-0.206-0.164-0.285-0.265l-0.002-0.003c0.002-0.019 0.002-0.041 0.002-0.063s-0.001-0.044-0.003-0.066l0 0.003-0.007-0.027-0.028 0.008c-0.313 0.469-0.916 1.271-1.809 2.404-0.68 0.807-1.032 1.255-1.053 1.345-0.277 0.287-0.409 0.46-0.396 0.52-0.073 0.047-0.104 0.093-0.093 0.147-0.020 0.004-0.035-0.003-0.040-0.024-0.117 0.188-0.303 0.323-0.523 0.368l-0.005 0.001-0.247 0.057c-0.033 0.007-0.049 0.031-0.047 0.071l0.007 0.031 0.092-0.021 0.007 0.027-0.209 0.080-0.369 0.085-0.195 0.013c-0.028 0.027 0.155-0.004 0.083 0.013l-0.241 0.057c-0.147 0.033-0.227 0.021-0.241-0.039l-0.029 0.007c0.005 0.027 0.007 0.045 0.003 0.063l-0.013-0.060-0.195 0.045c-0.013-0.091-0.277-0.417-0.787-0.981-0.011-0.109 0.169-0.268 0.537-0.475l1.039-0.913c0.232-0.299 0.369-0.777 0.415-1.436l-0.013-0.155c-0.040-0.465-0.377-0.84-1.011-1.128-0.375-0.253-1.048-0.389-2.020-0.411-0.807 0.068-1.86 0.356-3.155 0.856-0.346 0.252-0.743 0.506-1.155 0.737l-0.061 0.031 0.007 0.080c0.045-0.008 0.086-0.024 0.121-0.047l-0.001 0.001c0.053-0.005 0.081 0.019 0.087 0.067l0.080-0.045 0.040-0.003 0.003 0.039c0.003 0.037-0.28 0.257-0.851 0.661l0.045 0.071-0.040 0.003-0.088-0.031c0.003 0.024-0.039 0.040-0.12 0.047l0.004 0.043 0.095 0.105c-0.046-0.001-0.090-0.010-0.13-0.028l0.002 0.001c-0.185 0.017-0.365 0.149-0.543 0.4l0.045 0.072c0.153-0.143 0.244-0.213 0.269-0.216l0.009 0.116c-0.045 0.010-0.085 0.027-0.122 0.049l0.002-0.001 0.097 0.147c0.181-0.196 0.384-0.368 0.606-0.512l0.012-0.008c0.111 0.029 0.171 0.065 0.173 0.103l0.085-0.007c0.611-0.453 1.216-0.78 1.816-0.981l0.007 0.080c-0.112 0.167-0.187 0.252-0.227 0.256 0.004 0.057 0.023 0.107 0.059 0.149 0.009 0.103-0.264 0.789-0.816 2.061-1.253 2.955-2.307 5.14-3.164 6.553 0.003 0.029 0.020 0.067 0.051 0.115 0.211-0.051 0.344-0.103 0.4-0.152l0.045-0.005 0.007 0.080 0.079-0.007 0.080-0.044c0.003 0.023 0.029 0.035 0.084 0.031l0.007 0.080c0.007 0.079-0.039 0.197-0.133 0.36-0.085 0.097-0.177 0.301-0.275 0.613l0.003 0.037 0.079-0.008c0.341-0.381 0.6-0.756 0.777-1.12 0.996-0.293 1.755-0.58 2.28-0.861 0.529-0.045 0.933-0.185 1.208-0.416l-0.005-0.043-0.2 0.060-0.044 0.005-0.005-0.044c0.388-0.059 0.656-0.144 0.805-0.263 0.757-0.583 1.328-0.996 1.715-1.24 0.795-0.584 1.312-1.152 1.547-1.705l0.133-0.031c0.111-0.004 0.173-0.007 0.189-0.012-0.005-0.021 0.005-0.033 0.027-0.037 0.177-0.019 0.092 0.012 0.205-0.013l0.299-0.069c-0.019 0.004-0.027 0.013-0.021 0.032l0.045-0.027c-0.009 0-0.017-0.004-0.024-0.005l0.049-0.013-0.023 0.015c0.011 0.001 0.024 0.002 0.036 0.002 0.025 0 0.050-0.003 0.074-0.009l-0.002 0 0.021 0.088-1.359 2.16-0.301 0.377-0.147 0.493 0.028-0.008 0.147-0.061-0.047 0.192 0.013 0.057 0.041 0.049c-0.019 0.005-0.027 0.017-0.021 0.039l0.007 0.031 0.061-0.013c0.091-0.080 0.128-0.151 0.115-0.215 0.040 0.010 0.087 0.016 0.135 0.016 0.021 0 0.041-0.001 0.061-0.003l-0.002 0 0.007 0.032c-0.059 0.013-0.089 0.061-0.093 0.143l0.005 0.031 0.033-0.008c0.493-0.537 1.703-2.38 2.673-3.629-0.032-0.136 0.473-0.323 1.517-0.565l0.033-0.007c0.037 0.164-0.043 0.56-0.243 1.188-0.128 0.38-0.189 0.588-0.18 0.621-0.165 0.505-0.244 0.777-0.235 0.82l-0.369 1.213c-0.24 0.62-0.423 1.272-0.551 1.96 0.009-0.001 0.020-0.002 0.030-0.002 0.026 0 0.051 0.004 0.074 0.012l-0.002-0 0.052-0.045c0.005 0.021 0.019 0.028 0.040 0.024l-0.021-0.088 0.16-0.004c0.048-0.013 0.089-0.072 0.121-0.181-0.007-0.163 0.027-0.251 0.1-0.269 0.1-0.389 0.161-0.584 0.183-0.591 0.093-0.387 0.161-0.608 0.207-0.661 0.14-0.503 0.241-0.761 0.308-0.779l0.013 0.063-0.101 0.263c-0.177 0.789-0.357 1.413-0.54 1.871l0.052 0.227 0.033-0.005c0.44-0.949 1.076-2.827 1.904-5.635 0.019-0.244 0.155-0.452 0.35-0.572l0.003-0.002-0.048-0.051-0.007-0.027c0.095-0.020 0.161-0.059 0.2-0.111-0.005-0.021-0.088-0.052-0.249-0.095l0.413-1.769c0.045-0.048 0.097-0.089 0.154-0.121l0.003-0.002 0.007 0.089c-0.035 0.007-0.066 0.021-0.093 0.040l0.001-0 0.079 0.112c0.141-0.153 0.296-0.287 0.464-0.399 0.085 0.024 0.128 0.053 0.133 0.080l0.061-0.004c0.396-0.303 0.854-0.553 1.348-0.729l0.035-0.011 0.005 0.060c-0.083 0.125-0.14 0.189-0.171 0.192 0.004 0.042 0.017 0.081 0.038 0.114l-0.001-0.001c0.007 0.079-0.196 0.6-0.613 1.568-0.953 2.24-1.752 3.899-2.403 4.975 0.008 0.034 0.023 0.063 0.043 0.088l-0-0c0.16-0.039 0.261-0.079 0.301-0.116l0.028-0.003 0.005 0.059 0.067-0.004 0.060-0.031c0.003 0.016 0.023 0.023 0.064 0.021l0.005 0.064c0.005 0.056-0.029 0.147-0.103 0.269-0.068 0.073-0.14 0.228-0.216 0.463l0.003 0.031 0.063-0.004c0.227-0.247 0.424-0.527 0.579-0.832l0.010-0.021c0.757-0.224 1.333-0.44 1.732-0.653 0.405-0.035 0.711-0.14 0.92-0.315l-0.003-0.031-0.155 0.044-0.033 0.003-0.003-0.031c0.293-0.043 0.5-0.109 0.612-0.196 0.573-0.441 1.008-0.757 1.301-0.941 0.916-0.667 1.343-1.307 1.291-1.921zM19.58 14.875l0.021 0.24c-0.027 0.059-0.059 0.089-0.087 0.093l-0.036-0.409c0.067 0.024 0.1 0.048 0.101 0.076zM1.627 12.947l-0.040 0.001-0.007-0.073 0.164-0.013 0.003 0.037c-0.045 0.008-0.086 0.025-0.121 0.049l0.001-0.001zM0.827 20.94c-0.066-0.034-0.145-0.054-0.228-0.054-0.009 0-0.018 0-0.027 0.001l0.001-0-0.008-0.116c-0.005-0.044 0.021-0.075 0.077-0.087 0.053-0.005 0.083 0.033 0.088 0.108 0.137-0.168 0.213-0.253 0.227-0.256l0.089 0.036c-0.029 0.237-0.103 0.359-0.22 0.368zM9.367 12.007c-0.040 0.005-0.12-0.12-0.237-0.369l-0.007-0.073c0.076-0.008 0.155 0.116 0.237 0.369zM9.253 11.123l-0.033 0.079-1.16-0.484c0.773 0.027 1.172 0.16 1.193 0.405zM4.356 15.327l-0.164 0.013-0.007-0.072 0.164-0.015zM4.223 12.801l0.040-0.003 0.011 0.116c-0.039 0.003-0.088 0.060-0.149 0.169l-0.007-0.080c0.073-0.089 0.111-0.155 0.105-0.203zM3.88 13.612l0.013 0.155-0.040 0.003-0.013-0.155zM3.699 13.901l0.080-0.007c-0.008 0.128-0.044 0.197-0.107 0.201l-0.041 0.003c0.049-0.085 0.073-0.152 0.068-0.197zM3.565 14.305l0.044-0.005 0.003 0.037-0.073 0.124-0.079 0.007-0.003-0.037c0.079-0.008 0.115-0.048 0.108-0.125zM3.432 14.668l-0.024 0.195-0.040 0.001-0.017-0.192zM2.101 18.449c-0.053 0.267-0.109 0.4-0.168 0.405l-0.003-0.037c-0.015-0.131 0.043-0.253 0.171-0.368zM1.857 18.979l0.003 0.037c0.005 0.053-0.020 0.084-0.072 0.085l-0.003-0.037c-0.005-0.045 0.020-0.073 0.072-0.085zM1.785 20.076l0.124-0.012 0.005 0.043c-0.046 0.008-0.087 0.025-0.123 0.049l0.001-0.001-0.079 0.007c-0.005-0.040 0.021-0.071 0.071-0.085zM5.295 18.993c-0.692 0.341-1.1 0.573-1.221 0.693-0.749 0.261-1.12 0.423-1.113 0.487-0.667 0.264-1.107 0.457-1.316 0.579-0.079-0.001-0.153-0.022-0.218-0.057l0.002 0.001c-0.013-0.136 0.049-0.245 0.18-0.333 0.018-0.002 0.038-0.003 0.059-0.003 0.099 0 0.193 0.021 0.279 0.058l-0.005-0.002c0.184-0.085 0.399-0.158 0.624-0.208l0.022-0.004-0.007-0.080-0.247 0.021c0.031-0.043 0.268-0.155 0.715-0.333l0.123-0.013 0.003 0.039c-0.211 0.019-0.327 0.080-0.353 0.192 0.005 0.049 0.033 0.071 0.085 0.067 0.16-0.1 0.237-0.16 0.235-0.176 0.301-0.057 1.133-0.493 2.497-1.307l0.007 0.073c0.003 0.036-0.113 0.136-0.349 0.307zM3.204 19.68c0.201-0.016 0.38-0.104 0.512-0.237l0-0c0.057-0.004 0.088 0.017 0.089 0.067-0.096 0.009-0.284 0.091-0.556 0.247l-0.040 0.003zM6.577 17.089l-1.045 0.827c-0.777 0.511-1.195 0.767-1.253 0.771-1.239 0.68-2.009 1.035-2.308 1.060l-0.045 0.005c0.039-0.14 0.588-1.267 1.655-3.387 0.471-0.040 1.209-0.259 2.217-0.657l0.247-0.021c0.511-0.044 0.892 0.055 1.143 0.293l0.015 0.153c-0.189 0.545-0.399 0.863-0.624 0.956zM4.533 15.937l0.169-0.013 0.003 0.037-0.169 0.013zM6.899 15.537l0.123-0.013c0.113 0.055 0.173 0.103 0.177 0.145l0.003 0.037c-0.108 0.011-0.211-0.047-0.303-0.169zM7.232 13.632c-0.109 0.131-0.408 0.353-0.896 0.667-0.16 0.013-0.76 0.247-1.8 0.701-0.039-0.018-0.085-0.028-0.133-0.028-0.011 0-0.023 0.001-0.034 0.002l0.001-0-0.007-0.075c-0.013-0.149 0.053-0.337 0.2-0.564 0.081-0.427 0.169-0.672 0.267-0.731l0.867-1.947c-0.011-0.12 0.173-0.213 0.553-0.277l0.124-0.013 0.009 0.112c0.373-0.056 0.604-0.089 0.693-0.096 0.689-0.060 1.047 0.080 1.076 0.413l0.077-0.005-0.016-0.197 0.085-0.007c0.2 0.111 0.311 0.247 0.324 0.405 0.009 0.109-0.049 0.244-0.175 0.405-0.053 0.004-0.083-0.033-0.088-0.109l-0.085 0.007-0.019 0.237c-0.349 0.521-0.603 0.789-0.76 0.804-0.141 0.197-0.229 0.293-0.265 0.296zM7.764 14.996c-0.072-0.048-0.128-0.069-0.171-0.067l-0.009-0.116 0.077-0.007 0.173 0.101c0.007 0.055-0.016 0.083-0.071 0.088zM8.313 15.648c0.076 0.031 0.121 0.064 0.131 0.095l-0.037 0.009 0.003 0.003c-0.009 0.001-0.017 0.003-0.025 0.006l0.001-0-0.057 0.044zM8.367 15.975l-0.008-0.031 0.1-0.023 0.007 0.031zM8.605 16.243c0.101-0.016 0.152-0.023 0.341-0.067l0.007 0.032-0.36 0.083c0.004-0.013 0.008-0.029 0.012-0.046l0-0.002zM8.956 16.392c-0.152 0.015-0.119-0.004-0.36 0.051l-0.007-0.031 0.301-0.097 0.144-0.033 0.013 0.057c-0.063 0.013-0.016 0.013-0.092 0.053zM9.276 16.317c-0.035 0.009-0.064-0.008-0.080-0.048l0.093-0.021c0.040-0.009 0.065 0.007 0.075 0.048zM10.144 15.383l-0.007-0.031 0.149-0.036 0.013 0.057zM11.072 21.068c0.006-0.019 0.009-0.040 0.009-0.062 0-0.011-0.001-0.022-0.002-0.032l0 0.001 0.032-0.008c0.040-0.009 0.064 0.005 0.075 0.043l0.007 0.031zM11.721 15.627l-0.067-0.012c-0.075 0.033-0.165 0.064-0.258 0.088l-0.013 0.003-0.061 0.013c-0.036 0.009-0.064-0.004-0.079-0.043l0.435-0.099 0.143-0.067 0.047 0.053c-0.056 0.009-0.106 0.031-0.147 0.063l0.001-0.001zM12.055 15.52l-0.005-0.031c0.032-0.011 0.059-0.029 0.080-0.053l0-0 0.308-0.071 0.007 0.031c-0.163 0.040-0.293 0.080-0.389 0.124zM12.103 14.896c-0.033 0.013-0.062 0.031-0.085 0.053l0-0c-0.005-0.023-0.047-0.023-0.128-0.003-0.013-0.060 0.213-0.143 0.685-0.252l0.067-0.013 0.013 0.056c-0.331 0.097-0.516 0.152-0.552 0.159zM12.933 14c-0.033 0.377-0.167 0.591-0.4 0.645l-0.008-0.031-0.208 0.080-0.093 0.021c-0.018 0.005-0.038 0.008-0.059 0.008-0.024 0-0.048-0.004-0.070-0.011l0.002 0-0.019-0.083c-0.007-0.031 0.293-0.448 0.907-1.249l0.071 0.012c0.027 0.108-0.015 0.311-0.121 0.607zM14.4 12.743l-0.027 0.003-0.007-0.059 0.124-0.013 0.003 0.032c-0.035 0.009-0.066 0.022-0.095 0.038l0.002-0.001zM13.796 18.816c-0.051-0.027-0.111-0.043-0.175-0.043-0.005 0-0.010 0-0.015 0l0.001-0-0.007-0.091c-0.003-0.031 0.016-0.052 0.056-0.064 0.040-0.004 0.064 0.024 0.069 0.085 0.050-0.074 0.106-0.138 0.17-0.195l0.001-0.001 0.064 0.027c-0.024 0.18-0.079 0.275-0.164 0.281zM20.279 12.035c-0.031 0.001-0.089-0.093-0.183-0.285l-0.005-0.059c0.060-0.005 0.121 0.088 0.183 0.277zM20.193 11.356l-0.028 0.061-0.877-0.367c0.587 0.019 0.889 0.12 0.905 0.305zM16.473 14.551l-0.124 0.011-0.005-0.059 0.124-0.009zM16.371 12.631l0.033-0.001 0.007 0.091c-0.031 0.001-0.068 0.044-0.113 0.128l-0.005-0.060c0.053-0.068 0.080-0.12 0.079-0.157zM16.113 13.248l0.009 0.116-0.033 0.003-0.009-0.116zM15.973 13.469l0.061-0.005c-0.007 0.1-0.033 0.152-0.079 0.156l-0.033 0.003c0.028-0.043 0.047-0.096 0.051-0.152l0-0.001zM15.873 13.772l0.028-0.003 0.003 0.032-0.053 0.093-0.063 0.005-0.003-0.031c0.064-0.004 0.093-0.037 0.088-0.097zM15.773 14.048l-0.021 0.151-0.028 0.003-0.013-0.149zM14.76 16.924c-0.040 0.2-0.081 0.301-0.127 0.307l-0.003-0.027c-0.007-0.1 0.036-0.195 0.129-0.28zM14.573 17.324l0.003 0.027c0.005 0.043-0.013 0.067-0.056 0.068l-0.003-0.031c-0.003-0.031 0.016-0.052 0.056-0.064zM14.521 18.159l0.095-0.007 0.003 0.031c-0.035 0.007-0.067 0.019-0.095 0.037l0.001-0.001-0.060 0.004c-0.003-0.032 0.016-0.053 0.056-0.064zM17.184 17.336c-0.52 0.259-0.832 0.435-0.929 0.524-0.569 0.2-0.851 0.323-0.847 0.373-0.504 0.2-0.836 0.347-0.993 0.437-0.060-0.002-0.117-0.018-0.166-0.045l0.002 0.001c-0.009-0.103 0.039-0.185 0.139-0.247 0.015-0.002 0.033-0.002 0.051-0.002 0.073 0 0.143 0.015 0.206 0.041l-0.004-0.001c0.095-0.047 0.259-0.099 0.491-0.159l-0.005-0.059-0.195 0.013c0.024-0.033 0.207-0.119 0.547-0.256l0.093-0.007 0.003 0.027c-0.16 0.013-0.251 0.061-0.269 0.147 0.003 0.037 0.027 0.056 0.067 0.052 0.117-0.079 0.175-0.124 0.175-0.137 0.227-0.040 0.859-0.373 1.895-0.993l0.005 0.059c0.003 0.027-0.085 0.101-0.264 0.232zM15.596 17.857c0.154-0.012 0.291-0.078 0.393-0.177l-0 0c0.040-0.004 0.064 0.013 0.067 0.053-0.071 0.007-0.211 0.065-0.423 0.179l-0.033 0.003zM18.161 15.888l-0.789 0.635c-0.591 0.387-0.911 0.581-0.96 0.587-0.94 0.516-1.523 0.784-1.753 0.803l-0.033 0.003c0.029-0.107 0.449-0.963 1.26-2.571 0.353-0.031 0.913-0.199 1.68-0.503l0.193-0.016c0.387-0.033 0.676 0.043 0.865 0.225l0.009 0.116c-0.145 0.408-0.301 0.648-0.472 0.721zM16.611 15.015l0.124-0.012 0.003 0.031zM18.405 14.708l0.095-0.007c0.088 0.043 0.133 0.080 0.136 0.112l0.003 0.027c-0.083 0.007-0.161-0.036-0.233-0.132zM18.655 13.265c-0.083 0.099-0.308 0.269-0.676 0.507-0.123 0.013-0.579 0.187-1.365 0.529-0.031-0.011-0.067-0.018-0.105-0.018-0.007 0-0.015 0-0.022 0.001l0.001-0-0.005-0.059c-0.009-0.113 0.040-0.256 0.149-0.429 0.061-0.327 0.129-0.509 0.2-0.552l0.663-1.48c-0.007-0.088 0.133-0.16 0.417-0.213l0.095-0.007 0.007 0.089c0.28-0.045 0.455-0.071 0.527-0.079 0.521-0.044 0.795 0.060 0.816 0.316l0.061-0.005-0.013-0.141 0.063-0.005c0.152 0.083 0.232 0.183 0.241 0.301 0.007 0.085-0.035 0.189-0.125 0.311-0.040 0.005-0.064-0.024-0.068-0.085l-0.063 0.004-0.019 0.179c-0.263 0.4-0.455 0.607-0.576 0.616-0.107 0.145-0.173 0.219-0.203 0.221zM18.932 14.252l-0.007-0.091 0.061-0.005 0.133 0.080c0.003 0.040-0.017 0.060-0.057 0.065-0.056-0.036-0.099-0.053-0.131-0.049zM7.895 20.012l-0.063 0.013-0.052 0.045c0.009 0.037 0.033 0.052 0.073 0.043s0.057-0.033 0.041-0.101zM7.659 19.544l0.007 0.031c0.040-0.009 0.057-0.033 0.048-0.071l-0.007-0.031c-0.037 0.009-0.053 0.033-0.048 0.071zM9.328 15.572l0.072-0.016-0.013-0.063-0.072 0.017zM30.845 17.379c-0.72 0.161-0.811 0.133-0.963 0.145l0.005 0.059 0.067-0.004 0.035-0.003-0.009-0.008 0.080-0.031c0.712-0.077 0.796-0.049 0.785-0.159zM26.964 17.893l0.005 0.060h0.009zM26.517 16.331l-0.064-0.021c-0.033 0.071-0.059 0.154-0.075 0.24l-0.001 0.007 0.003 0.027c0.051-0.003 0.096-0.088 0.137-0.252zM30.992 17.367l0.005 0.060 0.104 0.019-0.005-0.059zM26.085 17.967l-0.16-0.019-0.029 0.061 0.003 0.031 0.96-0.080-0.004-0.059zM25.649 15.864l-0.003-0.031-0.032 0.003-0.060 0.037 0.033 0.057c0.045-0.005 0.067-0.027 0.061-0.067zM31.448 16.931l0.045-0.004c0.027-0.003 0.037-0.024 0.035-0.063l-0.027-0.056c-0.002 0-0.003-0-0.005-0-0.135 0-0.261 0.035-0.371 0.095l0.004-0.002-0.003-0.029-0.196 0.019c-0.005-0.060-0.021-0.091-0.048-0.088l-0.101 0.009c-0.12 0.009-0.176 0.005-0.235 0.051-0.003-0.023-0.009-0.032-0.021-0.032l-0.115 0.009-0.067 0.039c-0.003-0.021-0.009-0.031-0.021-0.031l-0.040 0.035-0.003-0.031-0.159-0.012-0.037 0.003 0.005 0.060 0.080 0.021 0.076-0.005c0.027 0.017 0.053 0.021 0.088 0.019l0.067-0.033 0.003 0.027c-0.373 0.093-0.371 0.076-0.627 0.119-0.028-0.019-0.049-0.028-0.064-0.027l-0.005 0.005c-0.028-0.003-0.045-0.021-0.048-0.053l0.133-0.016c0.009 0 0.016 0.011 0.091 0.024 0.107-0.052 0.111-0.073 0.168-0.077l-0.005-0.060c-0.365 0.071-0.219 0.024-0.676 0.064l-0.021 0.003-0.005-0.060c0.588-0.071 0.392-0.031 0.593-0.087 0.003 0.021 0.009 0.031 0.021 0.031 0.021-0.021 0.048-0.036 0.079-0.040l0.001-0 0.040-0.003c0.207-0.017 0.276 0.023 0.684-0.091l0.003 0.027 0.067-0.033 0.061-0.005c-0.005-0.059 0.085-0.068 0.116-0.071l-0.005-0.064c-0.716 0.144-0.904 0.104-1.103 0.16l-0.003-0.025c-0.187 0.033-0.195 0.019-0.243 0.021-0.024 0.007-0.043 0.021-0.059 0.038l-0 0c-0.003-0.021-0.009-0.031-0.024-0.031l-0.012 0.001-0.607 0.1c-0.003-0.016-0.009-0.027-0.024-0.024-0.316 0.067-0.231 0.079-0.653 0.116-0.029 0.006-0.055 0.018-0.078 0.034l0.001-0c-0.003-0.016-0.012-0.027-0.033-0.024l-0.259 0.021-0.173 0.044c-0.001-0.017-0.011-0.027-0.032-0.024-0.097 0.027-0.183 0.043-0.252 0.047h-0.005c-0.043 0.005 0.021-0.012-0.012-0.027l-0.052 0.032c-0.076 0.007-0.036-0.005-0.296-0.003-0.457 0.057-0.408 0.064-0.457 0.067l-0.172-0.012c0.003 0.016-0.007 0.028-0.027 0.028-0.193-0.027-0.293-0.056-0.295-0.093 0.027-0.184 0.071-0.279 0.133-0.283l0.035-0.003-0.029 0.061 0.033-0.003c0.063-0.033 0.091-0.064 0.088-0.093l-0.005-0.063-0.061 0.004-0.005-0.059c-0.001-0.008-0.002-0.018-0.002-0.028 0-0.033 0.008-0.064 0.021-0.092l-0.001 0.001 0.14-0.225 0.005 0.060 0.067-0.005-0.005-0.060-0.039-0.053c0.051-0.043 0.088-0.067 0.12-0.069l-0.004-0.031-0.089 0.007-0.007-0.089c0.18-0.375 0.265-0.593 0.26-0.655l0.064 0.027c0.040-0.004 0.060-0.027 0.057-0.069l-0.061 0.004-0.003-0.027c-0.001-0.006-0.001-0.013-0.001-0.021 0-0.038 0.009-0.073 0.026-0.105l-0.001 0.001c0.097-0.103 0.141-0.204 0.133-0.311 0.017-0.003 0.027 0.007 0.029 0.027 0.084-0.047 0.147-0.172 0.195-0.38 0.147-0.267 0.356-0.797 0.629-1.592 0.52-1.404 0.5-1.553 0.573-1.885l-0.061 0.005c0.001 0.006 0.001 0.013 0.001 0.020 0 0.037-0.009 0.071-0.026 0.101l0.001-0.001c-0.029-0.014-0.064-0.022-0.1-0.023h-0l-0.003-0.027c-0.009-0.12 0.040-0.265 0.155-0.436l0.028-0.003 0.053 0.204 0.060-0.004c-0.003-0.015 0.015-0.096 0.048-0.245-0.003-0.031-0.027-0.049-0.073-0.052l-0.060 0.039c-0.002-0.036-0.002-0.077-0.002-0.119 0-0.075 0.003-0.15 0.008-0.224l-0.001 0.010-0.031 0.004c-0.052-0.053-0.077-0.096-0.080-0.131l-0.34 0.033c-0.007-0.040-0.020-0.075-0.038-0.107l0.001 0.002c-0.003-0.031 0.073-0.061 0.229-0.092l0.069 0.027 0.064-0.039c0.003 0.021 0.013 0.031 0.039 0.029l0.064-0.039c0.003 0.021 0.013 0.031 0.037 0.028l0.031-0.001-0.005-0.069c-0.047 0.005-0.173 0.005-0.373-0.003l-0.063 0.043-0.003-0.037c-1.591 0.131-2.495 0.204-2.711 0.225-0.028 0.003-0.14 0-0.336-0.005 0.003 0.027-0.021 0.040-0.069 0.045l-0.069-0.031-0.232 0.059c-0.053 0.005-0.147 0.003-0.275-0.012-0.036 0.029-0.081 0.047-0.13 0.051l-0.001 0c-0.028 0.003 0.339-0.019 0.68-0.043-0.047 0.031-0.104 0.051-0.165 0.052h-0c-0.009 0.001-0.019 0.002-0.029 0.002-0.038 0-0.075-0.010-0.106-0.027l0.001 0.001c-0.137 0.045-0.307 0.086-0.48 0.115l-0.023 0.003-0.069-0.027-1.109 0.171c-0.034-0.016-0.073-0.025-0.115-0.025-0.012 0-0.024 0.001-0.036 0.002l0.001-0c-0.060 0.004-0.16 0.027-0.297 0.064l-0.536 0.223 0.040 0.067c0.041-0.007 0.078-0.022 0.11-0.043l-0.001 0.001 0.191 0.016-0.024 0.179c-0.176 0.077-0.277 0.193-0.307 0.341-0.263 0.116-0.393 0.199-0.393 0.248l0.003 0.031 0.040-0.001 0.072-0.039 0.083 0.1 0.012 0.137c0.005 0.043-0.439 0.975-1.325 2.796-0.768 1.755-1.172 2.715-1.209 2.888-0.264 0.073-0.415 0.18-0.46 0.323 0.005 0.045 0.083 0.076 0.235 0.088l0.007 0.068-0.069 0.115 0.013 0.137c0.005 0.071 0.199 0.125 0.575 0.163-0.003-0.023 0.009-0.037 0.036-0.040 0.007 0.085-0.016 0.252-0.071 0.499l0.040-0.003c0.156-0.213 0.231-0.36 0.223-0.44l0.033-0.004c0.037-0.003 0.079 0.040 0.125 0.133-0.047 0.019-0.213 0.396-0.497 1.133l0.040 0.067 0.040-0.003c0.349-0.883 0.567-1.371 0.657-1.463 0.457-0.040 1.249-0.121 2.373-0.243l0.072-0.043c0.003 0.024 0.016 0.036 0.043 0.033l0.073-0.007 0.071-0.043c0.003 0.024 0.016 0.036 0.043 0.033l0.851-0.073c0.227-0.020 0.333-0.088 0.323-0.204-0.003-0.031 0.131-0.067 0.399-0.105 0 0 0 0 0 0 0.042 0 0.081 0.008 0.118 0.022l-0.002-0.001c-0.003-0.021 0.133-0.043 0.403-0.067 0.007-0.141 0.053-0.217 0.133-0.224l-0.007-0.069c-0.097 0.011-0.186 0.032-0.27 0.063l0.008-0.003c-0.121-0.001-0.237-0.016-0.349-0.042l0.011 0.002c-0.031 0.020-0.068 0.034-0.107 0.041l-0.002 0-0.592 0.020-0.072 0.037c-0.003-0.021-0.016-0.031-0.043-0.028l-0.033 0.001-0.075 0.039c-0.003-0.021-0.064-0.039-0.188-0.055l-0.076 0.045-0.147 0.012-0.003-0.039c0.764-0.083 1.14-0.187 1.131-0.311 0.051-0.004 0.076 0.020 0.080 0.069l0.224-0.057-0.007-0.068-1.828 0.049c0.003 0.024-0.009 0.037-0.036 0.040l-0.223-0.019c-0.054 0.003-0.103 0.021-0.143 0.050l0.001-0.001-0.083-0.031c-0.231 0.019-0.4 0.048-0.515 0.083-0.063-0.004-0.137-0.007-0.211-0.007-0.109 0-0.217 0.005-0.324 0.016l0.013-0.001-0.411 0.035-0.189-0.021c-0.009-0.12 0.225-0.716 0.708-1.783 0.14-0.36 0.268-0.587 0.392-0.671 0.042 0.001 0.082 0.011 0.118 0.029l-0.002-0.001 0.292-0.1 0.149 0.024c0.251-0.021 0.543-0.093 0.877-0.216 0.017-0.003 0.038-0.004 0.058-0.004 0.047 0 0.092 0.008 0.134 0.022l-0.003-0.001 0.223-0.053 0.664-0.056c0.283-0.024 0.588-0.085 0.92-0.187l-0.007-0.069c-0.123 0.012-0.187-0.009-0.192-0.060-0.007-0.092-0.097-0.129-0.271-0.116l-0.007-0.068 0.183-0.053 0.48-0.040-0.007-0.068c-0.015 0-0.033 0-0.051 0-0.087 0-0.173-0.003-0.258-0.008l0.012 0.001-0.007-0.075 0.185-0.016c0.049-0.005 0.071-0.028 0.067-0.076-0.249 0.007-0.375-0.005-0.377-0.037-1.736 0.085-2.605 0.101-2.611 0.047-0.042 0.009-0.078 0.026-0.11 0.049l0.001-0.001-0.045-0.072c0.46-0.976 0.731-1.469 0.809-1.477-0.006 0.068-0.027 0.131-0.061 0.184l0.001-0.002 0.003 0.031 0.073-0.007c0.183-0.436 0.337-0.661 0.465-0.671 0.545-0.048-0.076-0.083 1.091-0.267 0.048 0.023 0.080 0.032 0.104 0.029 0.457-0.093 1.096-0.189 1.913-0.289l-0.005-0.069-0.436 0.040-0.005-0.067c0.050-0.004 0.095-0.022 0.131-0.051l-0 0 0.003 0.037c0.038-0.009 0.072-0.025 0.101-0.047l-0.001 0c0.076-0.008 0.133 0 0.173 0.021 0.102-0.030 0.225-0.056 0.351-0.072l0.013-0.001 0.273-0.027c0.067-0.043 0.097-0.080 0.095-0.116l-0.003-0.031c-0.022 0.002-0.047 0.003-0.073 0.003-0.059 0-0.117-0.006-0.173-0.017l0.006 0.001c-0.003-0.040 0.017-0.065 0.063-0.077l0.507-0.047 0.233-0.060c0.003 0.027 0.013 0.036 0.032 0.036 0.038-0.009 0.072-0.026 0.101-0.048l-0.001 0 0.039 0.005c-0.031 0.064-0.067 0.156-0.103 0.277l-0.067 0.005c-0.004-0.045-0.017-0.086-0.038-0.123l0.001 0.001-0.033 0.003c-0.616 1.716-0.892 2.516-1.461 3.833-0.104 0.337-0.192 0.524-0.267 0.565 0.003 0.037 0.027 0.056 0.067 0.052 0.002 0.019 0.002 0.040 0.002 0.062 0 0.158-0.045 0.306-0.122 0.432l0.002-0.004c-0.263 0.759-0.439 1.173-0.528 1.249l0.059 0.359c0.003 0.037-0.016 0.059-0.057 0.064l-0.063 0.004c-0.009-0.099-0.045-0.147-0.109-0.14l-0.033 0.003c-0.080 0.125-0.141 0.271-0.183 0.44l0.063-0.005c0.083-0.055 0.12-0.12 0.113-0.193l0.124-0.011 0.071 0.027c-0.057 0.089-0.083 0.16-0.079 0.215l0.033 0.057-0.080 0.189 0.003 0.031c0.004-0 0.009-0 0.015-0 0.081 0 0.157 0.025 0.219 0.068l-0.001-0.001c0.071-0.010 0.134-0.037 0.188-0.077l-0.001 0.001c0.072-0.007 0.337-0.009 0.795-0.009l0.231-0.079c0.28-0.003 0.324 0.005 0.567-0.016l0.099-0.009 0.053-0.036 0.003 0.031c0.253-0.021 0.269-0.005 0.469 0.019l0.003 0.031-0.14 0.013 0.005 0.059c0.042-0.003 0.080-0.019 0.111-0.043l-0 0c0.036-0.003 0.057 0.016 0.060 0.059-0.071 0.007-0.136 0.022-0.198 0.044l0.006-0.002-0.061-0.021c-0.097 0.027-0.076 0.033-0.143 0.039l-0.097-0.020c0.003 0.017-0.007 0.029-0.024 0.029 0.003 0.037 0.024 0.056 0.060 0.053l0.099-0.008 0.52-0.045 0.196-0.043c0.003 0.016 0.009 0.027 0.027 0.024l0.095-0.036 0.179-0.013c0.137-0.013 0.133-0.023 0.433-0.069-0.003-0.020 0.005-0.027 0.019-0.029l0.003 0.027c0.487-0.083 0.517-0.088 0.596-0.115l0.007 0.015c0.12-0.028 0.052-0.021 0.085-0.045 0.003 0.021 0.009 0.031 0.021 0.031l0.085-0.007-0.005-0.064-0.173-0.003-0.003-0.004-0.019 0.004h-0.024v0.005c-0.116 0.024-0.12 0.007-0.195 0.013l-0.435 0.024-0.003-0.031 0.243-0.033 0.088-0.007 0.049-0.036 0.003 0.032c0.341-0.029 0.463 0.056 2.041-0.28 0.085-0.008 0.079-0.079 0.133-0.227-0.004 0-0.008 0.001-0.012 0.001-0.026 0-0.050-0.007-0.071-0.018l0.001 0c-0.131 0.049-0.2 0.027-0.451 0.067-0.021 0.001-0.039-0.017-0.045-0.056l-0.003-0.027 0.241 0.008c0.045-0.004 0.133-0.012 0.264-0.085 0 0.021-0.048 0.033-0.013 0.031zM19.772 17.117l-0.112 0.011c-0.005-0.045 0.055-0.216 0.177-0.507l0.075-0.008c0.003 0.068-0.043 0.237-0.14 0.504zM19.907 16.577l-0.003-0.031c-0.003-0.037 0.021-0.064 0.073-0.076l0.003 0.031c0.003 0.045-0.021 0.072-0.073 0.076zM21.389 17.724l0.003 0.029-0.187 0.017-0.001-0.031zM21.165 17.704c0.003 0.037-0.053 0.080-0.177 0.123l-0.227-0.016-0.075 0.007-0.007-0.068zM22.664 10.805l-0.111 0.011-0.003-0.039c-0.003-0.037 0.019-0.064 0.067-0.076l0.040-0.003 0.076 0.031c0.003 0.045-0.020 0.072-0.069 0.076zM24.36 10.473l0.036-0.001 0.005 0.068-0.103 0.009c-0.003-0.037 0.017-0.064 0.061-0.076zM23.933 10.623l-0.168-0.019-0.003-0.031c0.22-0.019 0.293-0.043 0.428-0.080 0.003 0.027 0.027 0.035 0.069 0.031l0.005 0.068-0.067 0.008c-0.009 0.001-0.019 0.002-0.029 0.002-0.038 0-0.075-0.010-0.106-0.027l0.001 0.001c-0.037 0.025-0.081 0.042-0.129 0.047l-0.001 0zM24.144 11.237l-0.003-0.031 0.273-0.027 0.003 0.032zM24.436 11l-0.003-0.037 0.133-0.013 0.001 0.040zM24.467 10.536l-0.036 0.001 0.031-0.073 0.304-0.028 0.003 0.037c-0.114 0.014-0.216 0.036-0.314 0.066l0.013-0.003zM24.621 11.189l-0.005-0.068 0.133-0.012c0.044-0.005 0.067 0.017 0.069 0.064zM25.424 10.095l-0.171 0.047-0.031 0.003c-0.080 0.008-0.184 0.005-0.307-0.007 0.22-0.013 0.431-0.031 0.508-0.043zM25.243 10.853l0.003 0.031-0.236 0.021-0.003-0.031zM25.627 11.036c-0.003-0.028-0.048-0.048-0.14-0.057l-0.235 0.067-0.181 0.007c-0.040-0.028-0.061-0.047-0.064-0.061l0.209 0.012 0.469-0.076 0.24 0.009 0.003 0.039c-0.111 0.010-0.213 0.032-0.311 0.064l0.009-0.003zM28.043 10.412l0.053 0.003c0.079-0.078 0.173-0.142 0.277-0.187l0.006-0.002c-0.085 0.373-0.217 0.652-0.4 0.832l-0.133-0.080c0.069-0.154 0.136-0.341 0.19-0.535l0.007-0.030zM27.635 11.112l0.033-0.003c-0.045 0.085-0.085 0.131-0.119 0.133l-0.007-0.091c0.021 0 0.053-0.013 0.092-0.040zM27.372 11.74c0.064-0.256 0.125-0.4 0.183-0.439l0.003 0.031c-0.033 0.237-0.085 0.363-0.155 0.373l0.012 0.148c-0.057 0.081-0.083 0.143-0.080 0.191l-0.033 0.003-0.020-0.207c0.039-0.005 0.069-0.039 0.091-0.1zM27.269 12.081c-0.012 0.092-0.036 0.175-0.072 0.252l0.002-0.005-0.032 0.003-0.007-0.091c0.044-0.104 0.083-0.156 0.108-0.159zM25.356 17.635l-0.003-0.027 0.061-0.004 0.007 0.091c-0.033 0.003-0.057-0.017-0.065-0.060zM28.089 17.707c-0.003-0.021-0.012-0.031-0.032-0.029l-0.155 0.015-0.003-0.031h0.013l0.365-0.031 0.003 0.031c-0.107 0.004-0.171 0.021-0.192 0.045zM27.907 17.631c0.015 0.007 0.007 0.013 0 0.019-0.007-0.003-0.016-0.009 0-0.019zM27.927 17.204l-0.204 0.016-0.003-0.031 0.184-0.016 0.161-0.040c0.003 0.019 0.013 0.025 0.033 0.023 0.192-0.033 0.173-0.043 0.267-0.049 0.031-0.003 0.049 0.016 0.052 0.053zM28.64 17.141c-0.113-0.011-0.12-0.021-0.201-0.013l-0.003-0.027 0.183-0.016 0.003 0.027c-0.019 0.001 0.049 0.007 0.019 0.029zM28.653 17.109l-0.001-0.027 0.099-0.009 0.003 0.027zM28.875 17.089l-0.003-0.027c0.027-0.007 0.051-0.020 0.071-0.038l-0 0c0.051-0.004 0.076 0.029 0.081 0.067zM29.157 17.055l-0.003-0.032 0.12-0.009 0.003 0.031zM29.325 17.040c-0.003-0.036 0.012-0.057 0.043-0.061l0.040 0.052c-0.003-0.017 0.005-0.027 0.019-0.029l0.031 0.057zM27.535 17.813l-0.005-0.060-0.019 0.003zM31.701 16.733c0.019-0.011 0.028-0.023-0.017-0.031-0.021 0.024 0.024 0.032-0.023 0.033l0.003 0.021 0.027-0.019-0.027 0.021v0.003l-0.051 0.064 0.1-0.036h0.012zM31.875 16.869l-0.019 0.003 0.005 0.059 0.14-0.012c-0.003-0.037-0.096-0.049-0.127-0.049zM31.659 16.765l0.003-0.003v-0.003z"></path>
</symbol>
<symbol id="icon-webpack" viewBox="0 0 32 32">
<title>webpack</title>
<path fill="#8dd6f9" style="fill: var(--color7, #8dd6f9)" d="M28.021 24.16l-11.553 6.506v-5.068l7.198-3.942zM28.811 23.448v-13.607l-4.228 2.429v8.746zM3.901 24.16l11.553 6.506v-5.068l-7.198-3.942zM3.111 23.448v-13.607l4.228 2.429v8.746zM3.605 8.96l11.849-6.674v4.9l-7.649 4.19zM28.317 8.96l-11.849-6.674v4.9l7.649 4.19zM15.454 24.446l-7.102-3.887v-7.703l7.101 4.083zM16.468 24.446l7.101-3.887v-7.703l-7.101 4.083zM8.833 11.965l7.129-3.904 7.129 3.904-7.129 4.099z"></path>
</symbol>
<symbol id="icon-github" viewBox="0 0 32 32">
<title>github</title>
<path d="M16 0.396c-8.84 0-16 7.164-16 16 0 7.071 4.584 13.067 10.94 15.18 0.8 0.151 1.093-0.344 1.093-0.769 0-0.38-0.013-1.387-0.020-2.72-4.451 0.965-5.389-2.147-5.389-2.147-0.728-1.847-1.78-2.34-1.78-2.34-1.449-0.992 0.112-0.972 0.112-0.972 1.607 0.112 2.451 1.648 2.451 1.648 1.427 2.447 3.745 1.74 4.66 1.331 0.144-1.035 0.556-1.74 1.013-2.14-3.553-0.4-7.288-1.776-7.288-7.907 0-1.747 0.62-3.173 1.647-4.293-0.18-0.404-0.72-2.031 0.14-4.235 0 0 1.34-0.429 4.4 1.64 1.28-0.356 2.64-0.532 4-0.54 1.36 0.008 2.72 0.184 4 0.54 3.040-2.069 4.38-1.64 4.38-1.64 0.86 2.204 0.32 3.831 0.16 4.235 1.020 1.12 1.64 2.547 1.64 4.293 0 6.147-3.74 7.5-7.3 7.893 0.56 0.48 1.080 1.461 1.080 2.96 0 2.141-0.020 3.861-0.020 4.381 0 0.42 0.28 0.92 1.1 0.76 6.401-2.099 10.981-8.099 10.981-15.159 0-8.836-7.164-16-16-16z"></path>
</symbol>
<symbol id="icon-css3" viewBox="0 0 32 32">
<title>css3</title>
<path fill="#1572b6" style="fill: var(--color1, #1572b6)" d="M2 0h28l-2.547 28.751-11.484 3.249-11.42-3.251zM24.787 5.884l-17.573-0.004 0.284 3.496 13.5 0.003-0.34 3.621h-8.853l0.32 3.431h8.243l-0.488 4.697-3.88 1.072-3.941-1.080-0.251-2.813h-3.48l0.387 5.14 7.287 2.271 7.164-2.040z"></path>
</symbol>
<symbol id="icon-javascript" viewBox="0 0 32 32">
<title>javascript</title>
<path fill="#f7df1e" style="fill: var(--color1, #f7df1e)" d="M0 0h32v32h-32zM29.379 24.368c-0.233-1.46-1.184-2.687-4.004-3.831-0.981-0.46-2.072-0.78-2.396-1.52-0.121-0.44-0.14-0.68-0.061-0.94 0.2-0.861 1.22-1.12 2.020-0.88 0.52 0.16 1 0.56 1.301 1.2 1.379-0.901 1.379-0.901 2.34-1.5-0.36-0.56-0.539-0.801-0.781-1.040-0.84-0.94-1.959-1.42-3.779-1.379l-0.94 0.119c-0.901 0.22-1.76 0.7-2.28 1.34-1.52 1.721-1.081 4.721 0.759 5.961 1.82 1.36 4.481 1.659 4.821 2.94 0.32 1.56-1.16 2.060-2.621 1.88-1.081-0.24-1.68-0.781-2.34-1.781l-2.44 1.401c0.28 0.64 0.6 0.919 1.080 1.479 2.32 2.341 8.12 2.221 9.161-1.339 0.039-0.12 0.32-0.94 0.099-2.2zM17.401 14.708h-2.997c0 2.584-0.012 5.152-0.012 7.74 0 1.643 0.084 3.151-0.184 3.615-0.44 0.919-1.573 0.801-2.088 0.64-0.528-0.261-0.796-0.621-1.107-1.14-0.084-0.14-0.147-0.261-0.169-0.261l-2.433 1.5c0.407 0.84 1 1.563 1.765 2.023 1.14 0.68 2.672 0.9 4.276 0.54 1.044-0.301 1.944-0.921 2.415-1.881 0.68-1.24 0.536-2.76 0.529-4.461 0.016-2.739 0-5.479 0-8.239z"></path>
</symbol>
<symbol id="icon-jquery" viewBox="0 0 32 32">
<title>jquery</title>
<path fill="#0769ad" style="fill: var(--color1, #0769ad)" d="M2.045 7.832c-2.831 4.067-2.48 9.356-0.316 13.675 0.049 0.105 0.104 0.205 0.157 0.305 0.031 0.069 0.065 0.133 0.103 0.199 0.017 0.037 0.041 0.076 0.063 0.111 0.035 0.069 0.072 0.136 0.108 0.203l0.209 0.353c0.039 0.065 0.076 0.129 0.12 0.195 0.073 0.125 0.16 0.249 0.236 0.375 0.035 0.052 0.067 0.104 0.105 0.156 0.148 0.232 0.284 0.425 0.428 0.612l-0.015-0.020c0.104 0.143 0.208 0.281 0.32 0.42 0.036 0.051 0.076 0.101 0.113 0.152l0.295 0.359c0.036 0.041 0.072 0.089 0.111 0.132 0.131 0.157 0.269 0.311 0.408 0.465 0 0.003 0.004 0.005 0.007 0.009 0.172 0.217 0.358 0.409 0.56 0.582l0.006 0.005c0.107 0.109 0.213 0.219 0.327 0.325l0.135 0.129c0.148 0.139 0.296 0.277 0.452 0.411 0.003 0 0.004 0.003 0.007 0.004l0.076 0.067c0.136 0.119 0.273 0.237 0.413 0.347l0.167 0.14c0.113 0.091 0.231 0.177 0.347 0.267l0.181 0.139c0.124 0.093 0.256 0.185 0.383 0.276 0.047 0.033 0.093 0.067 0.141 0.097l0.039 0.031 0.375 0.247 0.16 0.107c0.196 0.125 0.391 0.244 0.584 0.361 0.056 0.028 0.112 0.059 0.164 0.091 0.144 0.083 0.293 0.167 0.439 0.244 0.080 0.045 0.163 0.084 0.245 0.125 0.1 0.056 0.204 0.111 0.311 0.167 0.029 0.009 0.054 0.019 0.077 0.032l-0.002-0.001c0.044 0.020 0.085 0.041 0.128 0.063 0.16 0.080 0.327 0.156 0.5 0.232 0.032 0.013 0.067 0.027 0.101 0.045 0.192 0.084 0.384 0.164 0.583 0.243 0.045 0.013 0.093 0.036 0.14 0.053 0.18 0.068 0.365 0.137 0.548 0.203l0.067 0.024c0.204 0.069 0.405 0.136 0.612 0.2 0.048 0.013 0.097 0.031 0.148 0.044 0.212 0.064 0.417 0.14 0.631 0.181 13.68 2.493 17.656-8.225 17.656-8.225-3.34 4.349-9.267 5.496-14.88 4.22-0.208-0.048-0.416-0.115-0.625-0.176-0.382-0.11-0.633-0.192-0.882-0.28l0.126 0.039-0.083-0.032c-0.181-0.061-0.356-0.129-0.533-0.197-0.034-0.015-0.082-0.033-0.132-0.050l-0.015-0.004c-0.196-0.079-0.387-0.16-0.576-0.244-0.041-0.013-0.076-0.032-0.117-0.048-0.35-0.155-0.508-0.231-0.665-0.308l0.184 0.081c-0.049-0.021-0.093-0.044-0.141-0.069-0.125-0.059-0.251-0.125-0.373-0.189-0.114-0.054-0.196-0.097-0.276-0.142l0.027 0.014c-0.151-0.080-0.301-0.167-0.452-0.249-0.045-0.032-0.097-0.059-0.149-0.088-0.289-0.169-0.479-0.288-0.668-0.409l0.084 0.050c-0.064-0.040-0.115-0.075-0.165-0.111l0.008 0.006c-0.172-0.106-0.308-0.197-0.44-0.291l0.024 0.017c-0.047-0.031-0.089-0.064-0.137-0.097-0.17-0.118-0.298-0.211-0.424-0.306l0.032 0.023c-0.056-0.045-0.116-0.088-0.176-0.133-0.117-0.092-0.236-0.18-0.353-0.277l-0.157-0.125c-0.174-0.14-0.319-0.263-0.461-0.388l0.016 0.013c-0.015-0.014-0.031-0.028-0.048-0.039l-0.001-0.001-0.463-0.421-0.133-0.125c-0.109-0.111-0.221-0.217-0.333-0.327l-0.129-0.133c-0.138-0.137-0.273-0.278-0.404-0.421l-0.008-0.009-0.020-0.021c-0.141-0.155-0.279-0.312-0.417-0.472-0.036-0.041-0.069-0.085-0.107-0.129l-0.301-0.369c-0.105-0.131-0.254-0.326-0.4-0.522l-0.054-0.075c-3.113-4.251-4.24-10.117-1.748-14.929zM10.828 4.407c-2.052 2.945-1.936 6.884-0.339 9.999 0.296 0.584 0.596 1.078 0.928 1.547l-0.025-0.038c0.307 0.44 0.645 0.96 1.056 1.315 0.143 0.163 0.297 0.32 0.459 0.479l0.12 0.12c0.152 0.147 0.308 0.291 0.467 0.433l0.020 0.017c0.16 0.141 0.34 0.29 0.524 0.435l0.028 0.021c0.045 0.031 0.084 0.067 0.128 0.097 0.187 0.144 0.375 0.283 0.569 0.42l0.020 0.012c0.083 0.060 0.171 0.115 0.264 0.173 0.037 0.024 0.080 0.056 0.12 0.080 0.141 0.091 0.28 0.176 0.423 0.263 0.023 0.009 0.043 0.021 0.064 0.031 0.12 0.073 0.251 0.144 0.376 0.209 0.044 0.027 0.087 0.047 0.132 0.072 0.089 0.044 0.177 0.091 0.263 0.136l0.043 0.019c0.18 0.088 0.364 0.171 0.544 0.253 0.045 0.017 0.084 0.032 0.123 0.051 0.148 0.064 0.299 0.125 0.447 0.183 0.067 0.023 0.129 0.049 0.192 0.069 0.136 0.051 0.279 0.097 0.413 0.144l0.187 0.060c0.195 0.060 0.392 0.139 0.597 0.172 10.56 1.751 13.005-6.383 13.005-6.383-2.201 3.168-6.461 4.677-11.001 3.499-0.277-0.071-0.476-0.13-0.673-0.195l0.076 0.022c-0.064-0.017-0.12-0.037-0.181-0.056-0.139-0.048-0.281-0.095-0.416-0.145l-0.192-0.072c-0.149-0.060-0.301-0.116-0.447-0.18-0.045-0.020-0.087-0.033-0.121-0.053-0.187-0.084-0.375-0.167-0.556-0.256l-0.275-0.143-0.159-0.080c-0.123-0.064-0.236-0.131-0.353-0.2-0.033-0.016-0.060-0.031-0.086-0.047l0.003 0.002c-0.141-0.088-0.288-0.173-0.423-0.264-0.045-0.025-0.087-0.056-0.129-0.083l-0.277-0.181c-0.192-0.133-0.38-0.277-0.569-0.416-0.043-0.039-0.084-0.071-0.125-0.105-1.996-1.569-3.571-3.715-4.317-6.144-0.787-2.525-0.613-5.357 0.745-7.656zM18.213 1.845c-1.211 1.776-1.327 3.981-0.493 5.94 0.885 2.080 2.696 3.713 4.805 4.487 0.087 0.033 0.171 0.061 0.26 0.093l0.117 0.036c0.123 0.039 0.247 0.084 0.373 0.112 5.835 1.125 7.413-2.996 7.839-3.601-1.389 1.995-3.719 2.473-6.576 1.779-0.279-0.070-0.509-0.143-0.732-0.228l0.044 0.015c-0.337-0.119-0.609-0.233-0.873-0.361l0.050 0.022c-0.55-0.269-1.022-0.562-1.462-0.896l0.021 0.016c-2.56-1.939-4.145-5.64-2.476-8.655z"></path>
</symbol>
<symbol id="icon-react" viewBox="0 0 32 32">
<title>react</title>
<path fill="#61dafb" style="fill: var(--color1, #61dafb)" d="M16 13.148c-1.575 0-2.852 1.277-2.852 2.852s1.277 2.852 2.852 2.852v0c1.575 0 2.852-1.277 2.852-2.852s-1.277-2.852-2.852-2.852v0zM8.011 21.673l-0.629-0.16c-4.691-1.185-7.381-3.197-7.381-5.519s2.691-4.333 7.381-5.519l0.629-0.159 0.177 0.624c0.545 1.86 1.163 3.443 1.899 4.957l-0.082-0.186 0.135 0.284-0.135 0.284c-0.656 1.329-1.275 2.912-1.761 4.551l-0.056 0.22zM7.089 11.933c-3.565 1.001-5.753 2.533-5.753 4.061 0 1.527 2.188 3.059 5.753 4.061 0.512-1.62 1.046-2.965 1.662-4.263l-0.086 0.202c-0.531-1.098-1.066-2.443-1.511-3.828l-0.065-0.234zM23.989 21.673l-0.177-0.625c-0.544-1.859-1.162-3.441-1.9-4.954l0.081 0.184-0.135-0.284 0.135-0.284c0.656-1.329 1.275-2.911 1.762-4.55l0.056-0.221 0.177-0.624 0.631 0.159c4.689 1.185 7.38 3.197 7.38 5.52s-2.691 4.333-7.38 5.519zM23.335 15.995c0.64 1.385 1.169 2.747 1.576 4.061 3.567-1.003 5.753-2.535 5.753-4.061 0-1.528-2.188-3.059-5.753-4.061-0.511 1.619-1.045 2.963-1.662 4.262l0.086-0.2zM7.080 11.927l-0.177-0.623c-1.319-4.648-0.919-7.979 1.097-9.141 1.977-1.141 5.152 0.207 8.479 3.621l0.453 0.465-0.453 0.465c-1.146 1.19-2.207 2.482-3.162 3.853l-0.068 0.103-0.18 0.257-0.313 0.027c-1.875 0.151-3.596 0.439-5.264 0.86l0.218-0.047zM9.608 3.087c-0.357 0-0.673 0.077-0.94 0.231-1.325 0.764-1.56 3.42-0.647 7.004 1.21-0.285 2.681-0.521 4.18-0.658l0.131-0.010c0.894-1.264 1.792-2.37 2.756-3.414l-0.020 0.022c-2.080-2.025-4.049-3.175-5.46-3.175zM22.393 30.236c-0.001 0-0.001 0 0 0-1.9 0-4.34-1.431-6.872-4.031l-0.453-0.465 0.453-0.465c1.146-1.19 2.206-2.482 3.16-3.854l0.068-0.103 0.18-0.257 0.312-0.027c1.875-0.15 3.597-0.438 5.267-0.858l-0.218 0.046 0.629-0.159 0.179 0.624c1.316 4.645 0.917 7.977-1.099 9.139-0.449 0.259-0.988 0.411-1.562 0.411-0.016 0-0.031-0-0.047-0l0.002 0zM16.932 25.728c2.080 2.025 4.049 3.175 5.46 3.175h0.001c0.356 0 0.673-0.077 0.939-0.231 1.325-0.764 1.561-3.421 0.647-7.005-1.212 0.286-2.682 0.522-4.182 0.658l-0.13 0.010c-0.893 1.265-1.791 2.371-2.755 3.416l0.020-0.022zM24.92 11.927l-0.629-0.159c-1.453-0.376-3.175-0.664-4.939-0.806l-0.111-0.007-0.312-0.027-0.18-0.257c-1.021-1.474-2.082-2.766-3.237-3.966l0.009 0.010-0.453-0.465 0.453-0.465c3.325-3.413 6.499-4.761 8.479-3.621 2.016 1.163 2.416 4.493 1.099 9.14zM19.667 9.653c1.523 0.139 2.969 0.364 4.312 0.668 0.915-3.584 0.679-6.24-0.647-7.004-1.317-0.761-3.793 0.405-6.4 2.944 0.943 1.022 1.841 2.128 2.666 3.289l0.069 0.103zM9.608 30.236c-0.014 0-0.030 0-0.046 0-0.574 0-1.113-0.152-1.577-0.419l0.015 0.008c-2.016-1.161-2.416-4.492-1.097-9.139l0.176-0.624 0.629 0.159c1.54 0.388 3.239 0.661 5.047 0.812l0.313 0.027 0.179 0.257c1.022 1.475 2.083 2.767 3.239 3.967l-0.010-0.010 0.453 0.465-0.453 0.465c-2.531 2.6-4.971 4.031-6.868 4.031zM8.021 21.667c-0.915 3.584-0.679 6.241 0.647 7.005 1.316 0.751 3.791-0.407 6.4-2.944-0.943-1.022-1.841-2.129-2.667-3.29l-0.069-0.103c-1.629-0.146-3.099-0.382-4.534-0.711l0.224 0.043zM16 22.504c-1.097 0-2.225-0.048-3.355-0.141l-0.313-0.027-0.18-0.257c-0.544-0.768-1.139-1.691-1.697-2.639l-0.103-0.19c-0.452-0.758-0.971-1.732-1.45-2.728l-0.105-0.243-0.133-0.284 0.133-0.284c0.584-1.239 1.102-2.212 1.658-3.161l-0.103 0.191c0.552-0.955 1.159-1.907 1.8-2.829l0.18-0.257 0.313-0.027c1.005-0.090 2.174-0.142 3.355-0.142s2.35 0.052 3.505 0.153l-0.15-0.011 0.312 0.027 0.179 0.257c1.177 1.666 2.294 3.567 3.252 5.56l0.104 0.24 0.135 0.284-0.135 0.284c-1.058 2.232-2.176 4.133-3.439 5.925l0.083-0.125-0.179 0.257-0.312 0.027c-1.129 0.093-2.259 0.141-3.356 0.141zM13.071 21.059c1.973 0.148 3.885 0.148 5.86 0 1.004-1.445 1.978-3.104 2.827-4.836l0.101-0.228c-0.947-1.958-1.922-3.617-3.012-5.19l0.083 0.126c-0.877-0.071-1.898-0.111-2.929-0.111s-2.052 0.040-3.063 0.119l0.134-0.008c-1.008 1.447-1.983 3.106-2.83 4.84l-0.099 0.224c0.951 1.96 1.926 3.619 3.014 5.193l-0.085-0.13z"></path>
</symbol>
<symbol id="icon-ios" viewBox="0 0 32 32">
<title>ios</title>
<path d="M1.467 8.067c-0.819 0-1.467 0.64-1.467 1.44 0 0 0 0 0 0 0 0.795 0.645 1.44 1.44 1.44 0.009 0 0.019-0 0.028-0l-0.001 0c0.827 0 1.48-0.64 1.48-1.44s-0.653-1.44-1.48-1.44zM11.613 8.093c-4.48 0-7.28 3.053-7.28 7.907 0 4.893 2.8 7.933 7.28 7.933 4.453 0 7.267-3.040 7.267-7.933 0-4.853-2.813-7.907-7.267-7.907zM26.067 8.093c-3.333 0-5.707 1.84-5.707 4.573 0 2.173 1.347 3.533 4.173 4.187l1.987 0.48c1.933 0.44 2.72 1.080 2.72 2.187 0 1.28-1.293 2.187-3.133 2.187-1.88 0-3.293-0.92-3.44-2.333h-2.667c0.107 2.827 2.427 4.56 5.947 4.56 3.72 0 6.053-1.827 6.053-4.733 0-2.28-1.333-3.573-4.427-4.28l-1.773-0.4c-1.88-0.453-2.653-1.053-2.653-2.067 0-1.28 1.173-2.133 2.907-2.133 1.747 0 2.947 0.867 3.080 2.293h2.613c-0.067-2.693-2.293-4.52-5.68-4.52zM11.613 10.427c2.72 0 4.467 2.173 4.467 5.573 0 3.427-1.747 5.6-4.467 5.6-2.747 0-4.48-2.173-4.48-5.6 0-3.4 1.733-5.573 4.48-5.573zM0.148 12.413v11.267h2.652v-11.267z"></path>
</symbol>
</defs>
</svg>
